<svg xmlns="http://www.w3.org/2000/svg" xmlns:xlink="http://www.w3.org/1999/xlink" width="1041.842" height="873.403" version="1.0">
  <defs>
    <pattern patternUnits="userSpaceOnUse" width="18.181" height="18.138" patternTransform="translate(763.477 1693.907)scale(.17379)" id="a">
      <path style="opacity:1;fill:#000;fill-opacity:1;stroke:none;stroke-width:.5;stroke-linecap:round;stroke-linejoin:round;stroke-miterlimit:4;stroke-dasharray:none;stroke-dashoffset:0;stroke-opacity:1" d="M1025.535 1215.281h18.173v18.096h-18.173z" transform="translate(-1025.535 -1215.281)"/>
      <path style="opacity:1;fill:#fff;fill-opacity:1;stroke:none;stroke-width:.5;stroke-linecap:round;stroke-linejoin:round;stroke-miterlimit:4;stroke-dasharray:none;stroke-dashoffset:0;stroke-opacity:1" d="M1025.535 1215.281h9.075v9.075h-9.075zm9.106 9.063h9.075v9.075h-9.075z" transform="translate(-1025.535 -1215.281)"/>
    </pattern>
    <pattern xlink:href="#a" id="b" patternTransform="translate(1565.897 -1722.691)scale(.45625)"/>
  </defs>
  <g transform="translate(-1277.024 -954.596)">
    <path d="M2064.326 1786.331c-1.795 0-161.21-3.589-161.21-3.589-25.323-.797-51.053.41-75.97-2.392-7.884-.887-14.808-6.568-22.431-8.674-2.845-.786-6.014-.376-8.973 0-8.805 1.12-17.52 3.176-26.32 4.486-5.258.783-10.539 1.665-15.852 1.795-39.55.966-79.16.985-118.74 1.495-45.56.587-91.122 1.22-136.684 1.795-41.274.521-83.044 3.019-123.823 1.495-4.583-.171-8.582-3.831-12.263-6.58-4.196-3.133-7.801-6.854-10.618-11.216" style="fill:none;fill-rule:evenodd;stroke:#fff;stroke-width:4;stroke-linecap:round;stroke-linejoin:round;stroke-miterlimit:4;stroke-dasharray:none;stroke-opacity:1"/>
    <path d="M1664.037 1557.13c-3.215-11.858-5.353-30.943-2.288-41.775 2.916-10.304 11.65-20.802 20.338-27.516 8.858-6.845 21.198-12.203 32.302-13.16 12.026-1.037 34.182 6.361 45.178 16.53m-175.582-159.795c-21.235-15.553-49.91-31.95-69.09-49.65-14.419-13.306-26.22-34.793-38.582-50.246m101.392 87.334c.398-5.982 6.507-13.345 10.468-15.852 3.915-2.477 9.69-3.718 14.356-3.29 5.104.47 13.858 2.493 17.946 7.777m-29.61-60.417c3.09 7.777 3.37 15.796 1.794 22.731-.916 4.032-4.399 7.992-7.776 10.469-4.1 3.006-19.832 4.948-24.825 2.99" style="fill:none;fill-rule:evenodd;stroke:#fff;stroke-width:12;stroke-linecap:round;stroke-linejoin:round;stroke-miterlimit:4;stroke-dasharray:none;stroke-opacity:1"/>
    <path d="M1710.8 1789.322c-101.691.177-203.089 2.692-304.774 2.692-11.57 0-24.152-.11-34.993-2.692-5.908-1.406-11.808-5.93-15.553-10.767-5.826-7.525-11.285-17.181-13.16-26.32-1.316-6.414.61-14.38 3.59-20.338 3.8-7.601 9.694-15.763 16.748-20.338 7.701-4.996 18.01-7.998 27.517-8.375 40.74-1.617 82.353 3.874 123.225 2.393 14.16-.513 28.237-4.411 41.873-8.375 20.66-6.006 40.372-15.72 61.014-21.534 7.672-2.161 16.115-3.063 23.928-2.393 6.145.527 13.473 1.707 17.945 5.982 22.645 21.646 41.024 49.398 63.407 71.782 5.133 5.132 12.247 8.17 19.142 8.972 10.252 1.192 21.31-.223 28.713-5.981 6.952-5.408 13.937-16.071 14.356-25.722.378-8.693-2.981-18.966-8.374-26.32-29.7-40.5-68.67-75.706-96.906-117.244-13.239-19.477-21.448-42.966-27.516-65.8-9.086-34.192-9.932-70.739-17.946-105.28-3.55-15.307-8.805-30.897-16.749-44.265-8.407-14.149-20.431-26.644-32.302-38.284-11.539-11.316-6.377-14.203-2.99-26.62 1.37-5.026-8.984-17.314-13.759-18.842-16.778-5.37-31.254-10.771-46.658-17.945-13.707-6.385-40.082-23.869-46.06-37.387-19.894-44.985-33.894-83.6-50.845-132.497-3.786-10.92-4.658-23.298-3.59-34.695 1.325-14.126 4.117-29.549 10.768-41.872 6.908-12.8 17.879-25.341 29.31-34.695 10.502-8.592 23.547-15.906 36.49-19.142 15.77-3.942 33.807-3.804 50.247-1.196 41.385 6.564 64.464 17.583 106.177 23.03 28.027 3.66 66.095 5.919 93.915 8.674 8.915.883 27.899 11.963 32.003 19.74 11.05 20.936 19.396 46.458 22.73 70.585 3.445 24.924 1.619 51.497-4.785 75.97-3.904 14.921-6.648 31.342-14.954 43.068-5.253 7.416-14.548 11.302-23.629 11.665-10.858.434-25.564-7.42-33.797-14.955-15.296-14-25.49-28.425-36.489-46.359-14.883-24.266-31.597-48.905-51.443-68.193-8.468-8.229-22.101-13.527-33.499-14.356-10.536-.766-23.821 3.312-32.302 9.571-8.269 6.103-15.69 17.166-16.45 27.516-1.21 16.478.798 34.584 6.281 51.145 14.456 43.656 31.318 88.058 52.042 129.506 15.167 30.334 32.39 60.173 52.64 87.335 29.997 40.233 63.599 78.333 98.102 114.85 20.13 21.307 40.617 35.013 61.912 55.033 13.504 12.697 8.569 19.207 3.888 25.124-4.68 5.917-17.946 22.731-17.946 28.713s.2 23.528 8.375 31.105c8.016 7.43 30.175 14.426 40.976 7.777 67.562-41.592 139.392-86.122 209.662-130.703 10.636-6.747 29.188-10.69 41.275-9.87 11.441.776 25.988 7.264 32.9 16.15 15.42 19.827 24.913 44.944 34.096 69.988 8.364 22.81 14.258 47.494 15.852 71.184 1.197 17.784-2.81 36.766-9.87 53.238-7.297 17.026-18.445 33.548-32.6 45.163-16.95 13.907-57.508 32.019-79.858 32.302-125.649 1.587-233.69-1.12-361.302-.898" style="fill:none;fill-rule:evenodd;stroke:#fff;stroke-width:12;stroke-linecap:round;stroke-linejoin:round;stroke-miterlimit:4;stroke-dasharray:none;stroke-opacity:1"/>
    <path style="fill:none;fill-rule:evenodd;stroke:#c8c8c8;stroke-width:10;stroke-linecap:round;stroke-linejoin:round;stroke-miterlimit:4;stroke-dasharray:none;stroke-opacity:1" d="M1664.037 1557.13c-3.215-11.858-5.353-30.943-2.288-41.775 2.916-10.304 11.65-20.802 20.338-27.516 8.858-6.845 21.198-12.203 32.302-13.16 12.026-1.037 34.182 6.361 45.178 16.53"/>
    <path style="fill:none;stroke:#c8c8c8;stroke-width:10;stroke-linecap:round;stroke-linejoin:round;stroke-miterlimit:4;stroke-opacity:1;stroke-dasharray:none" d="M1578.01 1321.39c-.538-9.865 6.875-16.67 4.17-24.498-2.613-6.182-.3-2.219-2.774-5.552-.474-.553 3.013 3.805-2.005-1.283-2.257-2.29-1.614-.679-2.806-1.02-4.77-1.368-1.844.582-7.97-1.2-6.127-1.782-37.378-18.255-53.657-25.157-16.28-6.901-31.675-22.494-39.547-34.44"/>
    <path style="fill:none;fill-rule:evenodd;stroke:#c8c8c8;stroke-width:10;stroke-linecap:round;stroke-linejoin:round;stroke-miterlimit:4;stroke-dasharray:none;stroke-opacity:1" d="M1577.705 1318.852c.398-5.982 6.507-13.345 10.468-15.852 3.915-2.477 9.69-3.718 14.356-3.29 5.104.47 13.858 2.493 17.946 7.777"/>
    <path style="fill:none;stroke:#c8c8c8;stroke-width:10;stroke-linecap:round;stroke-linejoin:round;stroke-miterlimit:4;stroke-opacity:1;stroke-dasharray:none" d="M1590.865 1247.07c3.09 7.777 3.37 15.796 1.794 22.731-.916 4.032-3.366 9.54-6.744 12.017-4.1 3.007-15.446 7.716-20.439 5.759"/>
    <path style="fill:none;stroke:#000;stroke-width:10;stroke-linecap:round;stroke-linejoin:round;stroke-miterlimit:4;stroke-opacity:1;stroke-dasharray:none" d="M1710.8 1789.322c-101.691.177-203.089 2.692-304.774 2.692-11.57 0-24.152-.11-34.993-2.692-5.908-1.406-11.808-5.93-15.553-10.767-5.826-7.525-11.285-17.181-13.16-26.32-1.316-6.414.61-14.38 3.59-20.338 3.8-7.601 9.694-15.763 16.748-20.338 7.701-4.996 18.01-7.998 27.516-8.375 40.74-1.617 82.354 3.874 123.226 2.393 14.16-.513 28.237-4.411 41.873-8.375 20.66-6.006 40.372-15.72 61.014-21.534 7.672-2.161 16.115-3.063 23.927-2.393 6.146.527 13.473 1.707 17.946 5.982 22.645 21.646 41.024 49.398 63.407 71.782 5.133 5.132 12.247 8.17 19.142 8.972 10.252 1.192 21.31-.223 28.713-5.981 6.953-5.408 13.937-16.071 14.356-25.722.378-8.693-2.981-18.966-8.374-26.32-29.7-40.5-68.67-75.706-96.906-117.244-13.239-19.477-21.448-42.966-27.516-65.8-9.086-34.192-9.932-70.739-17.946-105.28-3.55-15.307-8.805-30.897-16.749-44.265-8.407-14.149-20.431-26.644-32.302-38.284-13.548-15.338-18.082-16.575-34.484-31.967-10.748-8.601-21.338-16.45-35.092-26.428-5.61-4.071-28.13-19.628-39.89-42.399-22.574-43.702-33.895-83.6-50.846-132.497-3.786-10.92-4.658-23.298-3.59-34.694 1.325-14.127 4.117-29.55 10.768-41.873 6.908-12.8 17.879-25.341 29.31-34.695 10.502-8.592 23.547-15.906 36.49-19.142 15.77-3.942 33.807-3.804 50.247-1.196 41.385 6.564 64.464 17.583 106.177 23.03 28.027 3.66 66.095 5.919 93.915 8.674 8.915.883 27.899 11.964 32.003 19.74 11.05 20.936 19.396 46.458 22.73 70.585 3.445 24.924 1.619 51.497-4.785 75.97-3.904 14.921-6.648 31.342-14.954 43.068-5.253 7.416-14.548 11.302-23.629 11.665-10.858.434-25.564-7.42-33.797-14.955-15.296-14-25.49-28.425-36.489-46.359-14.883-24.266-31.597-48.905-51.444-68.192-8.467-8.23-22.1-13.528-33.498-14.357-10.536-.766-23.821 3.312-32.302 9.571-8.269 6.103-15.69 17.166-16.45 27.516-1.21 16.478.798 34.584 6.281 51.145 14.456 43.656 31.318 88.058 52.042 129.506 15.167 30.334 32.39 60.173 52.64 87.335 29.997 40.233 63.599 78.333 98.102 114.85 20.13 21.307 40.617 35.013 61.912 55.033 13.504 12.697 8.569 19.207 3.888 25.124-4.68 5.917-17.945 22.731-17.945 28.713s.199 23.528 8.374 31.105c8.016 7.43 30.175 14.426 40.975 7.777 67.563-41.592 139.393-86.122 209.663-130.703 10.636-6.747 29.188-10.69 41.275-9.87 11.441.776 25.988 7.265 32.9 16.15 15.42 19.827 24.913 44.944 34.096 69.988 8.364 22.81 14.258 47.494 15.852 71.184 1.197 17.784-2.81 36.766-9.87 53.238-7.297 17.026-18.445 33.548-32.6 45.163-16.95 13.907-57.508 32.019-79.858 32.302-125.649 1.587-233.69-1.12-361.302-.898"/>
    <path style="fill:none;fill-rule:evenodd;stroke:#000;stroke-width:2;stroke-linecap:round;stroke-linejoin:round;stroke-miterlimit:4;stroke-dasharray:none;stroke-opacity:1" d="M2064.326 1786.331c-1.795 0-161.21-3.589-161.21-3.589-25.323-.797-51.053.41-75.97-2.392-7.884-.887-14.808-6.568-22.431-8.674-2.845-.786-6.014-.376-8.973 0-8.805 1.12-17.52 3.176-26.32 4.486-5.258.783-10.539 1.665-15.852 1.795-39.55.966-79.16.985-118.74 1.495-45.56.587-91.122 1.22-136.684 1.795-41.274.521-83.044 3.019-123.823 1.495-4.583-.171-8.582-3.831-12.263-6.58-4.196-3.133-7.801-6.854-10.618-11.216"/>
    <path transform="translate(-481.098 356.763)scale(.80753)" d="M2241.51 1726.59c0 14.711-11.925 26.636-26.635 26.636s-26.634-11.925-26.634-26.635 11.924-26.635 26.635-26.635c14.71 0 26.634 11.925 26.634 26.635" style="opacity:1;fill:#fff;fill-opacity:1;fill-rule:nonzero;stroke:#181818;stroke-width:1;stroke-linecap:round;stroke-linejoin:round;stroke-miterlimit:4;stroke-dasharray:none;stroke-dashoffset:0;stroke-opacity:1"/>
    <text y="1748.893" x="1298.633" style="font-size:40px;font-style:normal;font-weight:400;fill:#000;fill-opacity:1;stroke:none;stroke-width:1px;stroke-linecap:butt;stroke-linejoin:miter;stroke-opacity:1;font-family:Times New Roman" xml:space="preserve" transform="translate(-1.045 15.668)"><tspan y="1748.893" x="1298.633">1</tspan></text>
    <path transform="translate(-172.05 243.75)scale(.80753)" d="M2241.51 1726.59c0 14.711-11.925 26.636-26.635 26.636s-26.634-11.925-26.634-26.635 11.924-26.635 26.635-26.635c14.71 0 26.634 11.925 26.634 26.635" style="opacity:1;fill:#fff;fill-opacity:1;fill-rule:nonzero;stroke:#181818;stroke-width:1;stroke-linecap:round;stroke-linejoin:round;stroke-miterlimit:4;stroke-dasharray:none;stroke-dashoffset:0;stroke-opacity:1"/>
    <text y="1631.112" x="1613.392" style="font-size:40px;font-style:normal;font-weight:400;fill:#000;fill-opacity:1;stroke:none;stroke-width:1px;stroke-linecap:butt;stroke-linejoin:miter;stroke-opacity:1;font-family:Times New Roman" xml:space="preserve" transform="translate(-6.453 20.435)"><tspan y="1631.112" x="1613.392">2</tspan></text>
    <path transform="translate(64.246 346.227)scale(.80753)" d="M2241.51 1726.59c0 14.711-11.925 26.636-26.635 26.636s-26.634-11.925-26.634-26.635 11.924-26.635 26.635-26.635c14.71 0 26.634 11.925 26.634 26.635" style="opacity:1;fill:#fff;fill-opacity:1;fill-rule:nonzero;stroke:#181818;stroke-width:1;stroke-linecap:round;stroke-linejoin:round;stroke-miterlimit:4;stroke-dasharray:none;stroke-dashoffset:0;stroke-opacity:1"/>
    <text y="1721.478" x="1812.401" style="font-size:40px;font-style:normal;font-weight:400;fill:#000;fill-opacity:1;stroke:none;stroke-width:1px;stroke-linecap:butt;stroke-linejoin:miter;stroke-opacity:1;font-family:Times New Roman" xml:space="preserve" transform="translate(31.283 32.312)"><tspan y="1721.478" x="1812.401">3</tspan></text>
    <path transform="translate(-198.069 -.063)scale(.80753)" d="M2241.51 1726.59c0 14.711-11.925 26.636-26.635 26.636s-26.634-11.925-26.634-26.635 11.924-26.635 26.635-26.635c14.71 0 26.634 11.925 26.634 26.635" style="opacity:1;fill:#fff;fill-opacity:1;fill-rule:nonzero;stroke:#181818;stroke-width:1;stroke-linecap:round;stroke-linejoin:round;stroke-miterlimit:4;stroke-dasharray:none;stroke-dashoffset:0;stroke-opacity:1"/>
    <text y="1407.735" x="1580.901" style="font-size:40px;font-style:normal;font-weight:400;fill:#000;fill-opacity:1;stroke:none;stroke-width:1px;stroke-linecap:butt;stroke-linejoin:miter;stroke-opacity:1;font-family:Times New Roman" xml:space="preserve"><tspan y="1407.735" x="1580.901">4</tspan></text>
    <path transform="translate(-348.32 -145.765)scale(.80753)" d="M2241.51 1726.59c0 14.711-11.925 26.636-26.635 26.636s-26.634-11.925-26.634-26.635 11.924-26.635 26.635-26.635c14.71 0 26.634 11.925 26.634 26.635" style="opacity:1;fill:#fff;fill-opacity:1;fill-rule:nonzero;stroke:#181818;stroke-width:1;stroke-linecap:round;stroke-linejoin:round;stroke-miterlimit:4;stroke-dasharray:none;stroke-dashoffset:0;stroke-opacity:1"/>
    <text y="1261.524" x="1430.629" style="font-size:40px;font-style:normal;font-weight:400;fill:#000;fill-opacity:1;stroke:none;stroke-width:1px;stroke-linecap:butt;stroke-linejoin:miter;stroke-opacity:1;font-family:Times New Roman" xml:space="preserve"><tspan y="1261.524" x="1430.629">5</tspan></text>
    <path transform="translate(-374.446 -417.773)scale(.80753)" d="M2241.51 1726.59c0 14.711-11.925 26.636-26.635 26.636s-26.634-11.925-26.634-26.635 11.924-26.635 26.635-26.635c14.71 0 26.634 11.925 26.634 26.635" style="opacity:1;fill:#fff;fill-opacity:1;fill-rule:nonzero;stroke:#181818;stroke-width:1;stroke-linecap:round;stroke-linejoin:round;stroke-miterlimit:4;stroke-dasharray:none;stroke-dashoffset:0;stroke-opacity:1"/>
    <text y="976.211" x="1410.322" style="font-size:40px;font-style:normal;font-weight:400;fill:#000;fill-opacity:1;stroke:none;stroke-width:1px;stroke-linecap:butt;stroke-linejoin:miter;stroke-opacity:1;font-family:Times New Roman" xml:space="preserve" transform="translate(-6.267 13.579)"><tspan y="976.211" x="1410.322">6</tspan></text>
    <path transform="translate(19.013 -402.289)scale(.80753)" d="M2241.51 1726.59c0 14.711-11.925 26.636-26.635 26.636s-26.634-11.925-26.634-26.635 11.924-26.635 26.635-26.635c14.71 0 26.634 11.925 26.634 26.635" style="opacity:1;fill:#fff;fill-opacity:1;fill-rule:nonzero;stroke:#181818;stroke-width:1;stroke-linecap:round;stroke-linejoin:round;stroke-miterlimit:4;stroke-dasharray:none;stroke-dashoffset:0;stroke-opacity:1"/>
    <text y="993.472" x="1813.416" style="font-size:40px;font-style:normal;font-weight:400;fill:#000;fill-opacity:1;stroke:none;stroke-width:1px;stroke-linecap:butt;stroke-linejoin:miter;stroke-opacity:1;font-family:Times New Roman" xml:space="preserve" transform="translate(-15.668 11.49)"><tspan y="993.472" x="1813.416">7</tspan></text>
    <path transform="translate(-9.964 -137.216)scale(.80753)" d="M2241.51 1726.59c0 14.711-11.925 26.636-26.635 26.636s-26.634-11.925-26.634-26.635 11.924-26.635 26.635-26.635c14.71 0 26.634 11.925 26.634 26.635" style="opacity:1;fill:#fff;fill-opacity:1;fill-rule:nonzero;stroke:#181818;stroke-width:1;stroke-linecap:round;stroke-linejoin:round;stroke-miterlimit:4;stroke-dasharray:none;stroke-dashoffset:0;stroke-opacity:1"/>
    <text y="1245.279" x="1774.833" style="font-size:40px;font-style:normal;font-weight:400;fill:#000;fill-opacity:1;stroke:none;stroke-width:1px;stroke-linecap:butt;stroke-linejoin:miter;stroke-opacity:1;font-family:Times New Roman" xml:space="preserve" transform="translate(-6.267 25.068)"><tspan y="1245.279" x="1774.833">8</tspan></text>
    <path transform="translate(-242.227 -334.33)scale(.80753)" d="M2241.51 1726.59c0 14.711-11.925 26.636-26.635 26.636s-26.634-11.925-26.634-26.635 11.924-26.635 26.635-26.635c14.71 0 26.634 11.925 26.634 26.635" style="opacity:1;fill:#fff;fill-opacity:1;fill-rule:nonzero;stroke:#181818;stroke-width:1;stroke-linecap:round;stroke-linejoin:round;stroke-miterlimit:4;stroke-dasharray:none;stroke-dashoffset:0;stroke-opacity:1"/>
    <text y="1054.393" x="1529.118" style="font-size:40px;font-style:normal;font-weight:400;fill:#000;fill-opacity:1;stroke:none;stroke-width:1px;stroke-linecap:butt;stroke-linejoin:miter;stroke-opacity:1;font-family:Times New Roman" xml:space="preserve" transform="translate(7.312 18.801)"><tspan y="1054.393" x="1529.118">9</tspan></text>
    <path transform="translate(80.723 139.496)scale(.80753)" d="M2241.51 1726.59c0 14.711-11.925 26.636-26.635 26.636s-26.634-11.925-26.634-26.635 11.924-26.635 26.635-26.635c14.71 0 26.634 11.925 26.634 26.635" style="opacity:1;fill:#fff;fill-opacity:1;fill-rule:nonzero;stroke:#181818;stroke-width:1;stroke-linecap:round;stroke-linejoin:round;stroke-miterlimit:4;stroke-dasharray:none;stroke-dashoffset:0;stroke-opacity:1"/>
    <text y="1540.746" x="1855.045" style="font-size:40px;font-style:normal;font-weight:400;fill:#000;fill-opacity:1;stroke:none;stroke-width:1px;stroke-linecap:butt;stroke-linejoin:miter;stroke-opacity:1;font-family:Times New Roman" xml:space="preserve" transform="translate(-7.365 6.313)"><tspan y="1540.746" x="1855.045">10</tspan></text>
    <path transform="translate(120.718 272.808)scale(.80753)" d="M2241.51 1726.59c0 14.711-11.925 26.636-26.635 26.636s-26.634-11.925-26.634-26.635 11.924-26.635 26.635-26.635c14.71 0 26.634 11.925 26.634 26.635" style="opacity:1;fill:#fff;fill-opacity:1;fill-rule:nonzero;stroke:#181818;stroke-width:1;stroke-linecap:round;stroke-linejoin:round;stroke-miterlimit:4;stroke-dasharray:none;stroke-dashoffset:0;stroke-opacity:1"/>
    <text y="1674.772" x="1861.138" style="font-size:40px;font-style:normal;font-weight:400;fill:#000;fill-opacity:1;stroke:none;stroke-width:1px;stroke-linecap:butt;stroke-linejoin:miter;stroke-opacity:1;font-family:Times New Roman" xml:space="preserve" transform="translate(28.267 5.833)"><tspan y="1674.772" x="1861.138">11</tspan></text>
    <path transform="translate(348.916 73.043)scale(.80753)" d="M2241.51 1726.59c0 14.711-11.925 26.636-26.635 26.636s-26.634-11.925-26.634-26.635 11.924-26.635 26.635-26.635c14.71 0 26.634 11.925 26.634 26.635" style="opacity:1;fill:#fff;fill-opacity:1;fill-rule:nonzero;stroke:#181818;stroke-width:1;stroke-linecap:round;stroke-linejoin:round;stroke-miterlimit:4;stroke-dasharray:none;stroke-dashoffset:0;stroke-opacity:1"/>
    <text y="1480.84" x="2115.99" style="font-size:40px;font-style:normal;font-weight:400;fill:#000;fill-opacity:1;stroke:none;stroke-width:1px;stroke-linecap:butt;stroke-linejoin:miter;stroke-opacity:1;font-family:Times New Roman" xml:space="preserve"><tspan y="1480.84" x="2115.99">12</tspan></text>
    <path transform="translate(423.31 343.565)scale(.80753)" d="M2241.51 1726.59c0 14.711-11.925 26.636-26.635 26.636s-26.634-11.925-26.634-26.635 11.924-26.635 26.635-26.635c14.71 0 26.634 11.925 26.634 26.635" style="opacity:1;fill:#fff;fill-opacity:1;fill-rule:nonzero;stroke:#181818;stroke-width:1;stroke-linecap:round;stroke-linejoin:round;stroke-miterlimit:4;stroke-dasharray:none;stroke-dashoffset:0;stroke-opacity:1"/>
    <text y="1743.816" x="2188.081" style="font-size:40px;font-style:normal;font-weight:400;fill:#000;fill-opacity:1;stroke:none;stroke-width:1px;stroke-linecap:butt;stroke-linejoin:miter;stroke-opacity:1;font-family:Times New Roman" xml:space="preserve" transform="translate(3.134 7.312)"><tspan y="1743.816" x="2188.081">13</tspan></text>
    <text xml:space="preserve" style="font-size:28px;font-style:normal;font-weight:700;fill:#000;fill-opacity:1;stroke:#fefefe;stroke-width:.5;stroke-linecap:butt;stroke-linejoin:miter;stroke-miterlimit:4;stroke-dasharray:none;stroke-opacity:1;font-family:Times New Roman" x="1276.263" y="1672.954"><tspan x="1276.263" y="1672.954">Tarzanbocht</tspan></text>
    <text xml:space="preserve" style="font-size:28px;font-style:normal;font-weight:700;fill:#000;fill-opacity:1;stroke:#fefefe;stroke-width:.5;stroke-linecap:butt;stroke-linejoin:miter;stroke-miterlimit:4;stroke-dasharray:none;stroke-opacity:1;font-family:Times New Roman" x="1441.927" y="1607.646"><tspan x="1441.927" y="1607.646">Gerlachbocht</tspan></text>
    <text xml:space="preserve" style="font-size:28px;font-style:normal;font-weight:700;fill:#000;fill-opacity:1;stroke:#fefefe;stroke-width:.5;stroke-linecap:butt;stroke-linejoin:miter;stroke-miterlimit:4;stroke-dasharray:none;stroke-opacity:1;font-family:Times New Roman" x="1916.068" y="1744.746"><tspan x="1916.068" y="1744.746">Hugenholtzbocht</tspan></text>
    <text xml:space="preserve" style="font-size:28px;font-style:normal;font-weight:700;fill:#000;fill-opacity:1;stroke:#fefefe;stroke-width:.5;stroke-linecap:butt;stroke-linejoin:miter;stroke-miterlimit:4;stroke-dasharray:none;stroke-opacity:1;font-family:Times New Roman" x="1402.833" y="1402.028"><tspan x="1402.833" y="1402.028">Hunserug</tspan></text>
    <text xml:space="preserve" style="font-size:28px;font-style:normal;font-weight:700;fill:#000;fill-opacity:1;stroke:#fefefe;stroke-width:.5;stroke-linecap:butt;stroke-linejoin:miter;stroke-miterlimit:4;stroke-dasharray:none;stroke-opacity:1;font-family:Times New Roman" x="1300.197" y="1270.535"><tspan x="1300.197" y="1270.535">Rob</tspan><tspan x="1300.197" y="1305.535">Slotemakerbocht</tspan></text>
    <text xml:space="preserve" style="font-size:28px;font-style:normal;font-weight:700;fill:#000;fill-opacity:1;stroke:#fefefe;stroke-width:.5;stroke-linecap:butt;stroke-linejoin:miter;stroke-miterlimit:4;stroke-dasharray:none;stroke-opacity:1;font-family:Times New Roman" x="1538.469" y="1029.956"><tspan x="1538.469" y="1029.956">Vodafonebocht</tspan></text>
    <text xml:space="preserve" style="font-size:28px;font-style:normal;font-weight:700;fill:#000;fill-opacity:1;stroke:#fefefe;stroke-width:.5;stroke-linecap:butt;stroke-linejoin:miter;stroke-miterlimit:4;stroke-dasharray:none;stroke-opacity:1;font-family:Times New Roman" x="1309.138" y="1022.238"><tspan x="1309.138" y="1022.238">Sheivlak</tspan></text>
    <text xml:space="preserve" style="font-size:28px;font-style:normal;font-weight:700;fill:#000;fill-opacity:1;stroke:#fefefe;stroke-width:.5;stroke-linecap:butt;stroke-linejoin:miter;stroke-miterlimit:4;stroke-dasharray:none;stroke-opacity:1;font-family:Times New Roman" x="1809.605" y="1037.853"><tspan x="1809.605" y="1037.853">Marlborobocht</tspan></text>
    <text xml:space="preserve" style="font-size:28px;font-style:normal;font-weight:700;fill:#000;fill-opacity:1;stroke:#fefefe;stroke-width:.5;stroke-linecap:butt;stroke-linejoin:miter;stroke-miterlimit:4;stroke-dasharray:none;stroke-opacity:1;font-family:Times New Roman" x="1792.008" y="1224.774"><tspan x="1792.008" y="1224.774">Renualtbocht</tspan></text>
    <text xml:space="preserve" style="font-size:28px;font-style:normal;font-weight:700;fill:#000;fill-opacity:1;stroke:#fefefe;stroke-width:.5;stroke-linecap:butt;stroke-linejoin:miter;stroke-miterlimit:4;stroke-dasharray:none;stroke-opacity:1;font-family:Times New Roman" x="1818.303" y="1501.774"><tspan x="1818.303" y="1501.774">Audi &apos;S&apos; bocht</tspan></text>
    <text xml:space="preserve" style="font-size:28px;font-style:normal;font-weight:700;fill:#000;fill-opacity:1;stroke:#fefefe;stroke-width:.5;stroke-linecap:butt;stroke-linejoin:miter;stroke-miterlimit:4;stroke-dasharray:none;stroke-opacity:1;font-family:Times New Roman" x="2056.666" y="1434.02"><tspan x="2056.666" y="1434.02">Kumhobocht</tspan></text>
    <text xml:space="preserve" style="font-size:28px;font-style:normal;font-weight:700;fill:#000;fill-opacity:1;stroke:#fefefe;stroke-width:.5;stroke-linecap:butt;stroke-linejoin:miter;stroke-miterlimit:4;stroke-dasharray:none;stroke-opacity:1;font-family:Times New Roman" x="1973.875" y="1675.948"><tspan x="1973.875" y="1675.948">Hunserud</tspan></text>
    <text xml:space="preserve" style="font-size:28px;font-style:normal;font-weight:700;fill:#000;fill-opacity:1;stroke:#fefefe;stroke-width:.5;stroke-linecap:butt;stroke-linejoin:miter;stroke-miterlimit:4;stroke-dasharray:none;stroke-opacity:1;font-family:Times New Roman" x="1804.572" y="1822.163"><tspan x="1804.572" y="1822.163">Tunnel West</tspan></text>
    <path style="opacity:1;fill:red;fill-opacity:1;stroke:#fff;stroke-width:.83812821;stroke-linecap:round;stroke-linejoin:miter;stroke-miterlimit:4;stroke-dasharray:none;stroke-dashoffset:0;stroke-opacity:1;display:inline" d="M1695.937 1398.52h-24.481l12.24-21.2z" transform="matrix(-.00076 .514 1.5579 .00232 -414.347 946.847)"/>
    <rect style="opacity:1;fill:url(#b);fill-opacity:1;stroke:#000;stroke-width:.74999946;stroke-linecap:round;stroke-linejoin:round;stroke-miterlimit:4;stroke-dasharray:none;stroke-dashoffset:0;stroke-opacity:1;display:inline" width="12.409" height="45.403" x="1723.24" y="-1801.317" transform="scale(1 -1)rotate(-.295)" ry="0"/>
    <path style="opacity:1;fill:#000;fill-opacity:1;stroke:#fff;stroke-width:.83812821;stroke-linecap:round;stroke-linejoin:miter;stroke-miterlimit:4;stroke-dasharray:none;stroke-dashoffset:0;stroke-opacity:1;display:inline" d="M1695.937 1398.52h-24.481l12.24-21.2z" transform="matrix(.46316 -.2229 -.67557 -1.4038 1486.869 4021.178)"/>
    <text y="1409.435" x="1759.952" style="font-size:64px;font-style:normal;font-weight:400;fill:#000;fill-opacity:1;stroke:#fff;stroke-width:1px;stroke-linecap:butt;stroke-linejoin:miter;stroke-opacity:1;font-family:Times New Roman" xml:space="preserve" transform="translate(248.298 -79.96)"><tspan y="1409.435" x="1759.952">N</tspan></text>
    <path d="m1822.244 1415.46 10.556-53.738.952.395 4.672 14.281 13.402-6.795.952.395z" style="fill:red;fill-opacity:1;fill-rule:nonzero;stroke:#fff;stroke-width:1;stroke-linecap:round;stroke-linejoin:round;stroke-miterlimit:4;stroke-dasharray:none;stroke-dashoffset:0;stroke-opacity:1" transform="translate(248.298 -79.96)"/>
    <path style="opacity:1;fill:#000;fill-opacity:1;stroke:#fff;stroke-width:.83812821;stroke-linecap:round;stroke-linejoin:miter;stroke-miterlimit:4;stroke-dasharray:none;stroke-dashoffset:0;stroke-opacity:1;display:inline" d="M1695.937 1398.52h-24.481l12.24-21.2z" transform="matrix(.22162 -.46377 -1.40565 -.6717 3146.72 3346.141)"/>
    <path style="opacity:1;fill:#000;fill-opacity:1;stroke:#fff;stroke-width:.83812821;stroke-linecap:round;stroke-linejoin:miter;stroke-miterlimit:4;stroke-dasharray:none;stroke-dashoffset:0;stroke-opacity:1;display:inline" d="M1695.937 1398.52h-24.481l12.24-21.2z" transform="matrix(-.04563 .51197 1.55174 .1383 -268.484 679.36)"/>
    <path transform="matrix(-.04563 .51197 1.55174 .1383 -182.211 678.307)" d="M1695.937 1398.52h-24.481l12.24-21.2z" style="opacity:1;fill:#000;fill-opacity:1;stroke:#fff;stroke-width:.83812821;stroke-linecap:round;stroke-linejoin:miter;stroke-miterlimit:4;stroke-dasharray:none;stroke-dashoffset:0;stroke-opacity:1;display:inline"/>
    <path style="opacity:1;fill:#000;fill-opacity:1;stroke:#fff;stroke-width:.83812821;stroke-linecap:round;stroke-linejoin:miter;stroke-miterlimit:4;stroke-dasharray:none;stroke-dashoffset:0;stroke-opacity:1;display:inline" d="M1695.937 1398.52h-24.481l12.24-21.2z" transform="matrix(-.031 -.51307 -1.55506 .09393 3756.583 2130.481)"/>
    <path style="opacity:1;fill:#000;fill-opacity:1;stroke:#fff;stroke-width:.83812821;stroke-linecap:round;stroke-linejoin:miter;stroke-miterlimit:4;stroke-dasharray:none;stroke-dashoffset:0;stroke-opacity:1;display:inline" d="M1695.937 1398.52h-24.481l12.24-21.2z" transform="matrix(.19258 .47656 1.44442 -.58368 -742.565 1055.014)"/>
    <path style="opacity:1;fill:#000;fill-opacity:1;stroke:#fff;stroke-width:.83812821;stroke-linecap:round;stroke-linejoin:miter;stroke-miterlimit:4;stroke-dasharray:none;stroke-dashoffset:0;stroke-opacity:1;display:inline" d="M1695.937 1398.52h-24.481l12.24-21.2z" transform="matrix(-.04563 .51197 1.55174 .1383 -124.345 614.128)"/>
    <path style="opacity:1;fill:#000;fill-opacity:1;stroke:#fff;stroke-width:.83812821;stroke-linecap:round;stroke-linejoin:miter;stroke-miterlimit:4;stroke-dasharray:none;stroke-dashoffset:0;stroke-opacity:1;display:inline" d="M1695.937 1398.52h-24.481l12.24-21.2z" transform="matrix(-.1955 .47537 1.44082 .59252 193.244 41.64)"/>
    <text xml:space="preserve" style="font-size:28px;font-style:normal;font-weight:700;fill:#000;fill-opacity:1;stroke:#fff;stroke-width:.5;stroke-linecap:butt;stroke-linejoin:miter;stroke-miterlimit:4;stroke-dasharray:none;stroke-opacity:1;font-family:Times New Roman" x="193.245" y="2809.952" transform="rotate(-46.24)"><tspan x="193.245" y="2809.952">Arie</tspan><tspan x="193.245" y="2844.952">Luvenoukbocht</tspan></text>
  </g>
</svg>
